<?xml version="1.0" encoding="UTF-8"?>
<svg version="1.1" viewBox="0 0 1000 330" xmlns="http://www.w3.org/2000/svg">
<g transform="translate(-.60606 .41252)">
<svg width="1e3" height="330" data-background-color="#c9efc7" viewBox="0 0 396 131" xmlns="http://www.w3.org/2000/svg" xmlns:xlink="http://www.w3.org/1999/xlink">
<g transform="translate(.24 -.16376)">
<svg width="395.52" height="131.33" viewBox="0 0 395.52 131.32751277740178">
<svg width="395.52" height="131.33" viewBox="0 0 645.9765893941906 214.48851839999998">
<g transform="translate(0 31.065)">
<svg width="395.52" height="152.36" viewBox="0 0 395.52 152.35801603801605">
<svg width="395.52" height="152.36" viewBox="0 0 395.52 152.35801603801605">
<svg width="395.52" height="152.36" viewBox="0 0 395.52 152.35801603801605">
<g>
<svg width="395.52" height="152.36" data-palette-color="#528265" viewBox="-3.2699999809265137 -50.38999938964844 164.38999938964844 63.33000183105469">
<path class="undefined-text-0" d="m68.46 10.94q0 0.53-0.25 1.02-0.97 0.54-2.02 0.76t-2.08 0.22q-0.49 0-1.05-0.02-0.56-0.03-1-0.13-0.15-0.05-0.34-0.19-0.2-0.15-0.39-0.15-0.49 0-0.93 0.17t-0.93 0.17q-0.24 0-0.46-0.14-0.22-0.15-0.47-0.2-0.34-0.1-0.68-0.05t-0.73 0.05q-0.54 0-0.95-0.15-0.42-0.14-0.76-0.53-1.22-0.15-2.39-0.47-1.17-0.31-2.35-0.68-1.17-0.37-2.34-0.68-1.17-0.32-2.39-0.42-0.3-0.34-0.69-0.51t-0.58-0.56q-0.25 0-0.34 0.07-0.1 0.07-0.35 0.07-0.83-0.68-1.78-1.17t-1.95-0.93-1.95-0.9q-0.96-0.46-1.79-1.2h-0.24q-0.39 0.05-0.66-0.17t-0.66-0.22q-0.24 0-0.39 0.05-0.15-0.39-0.44-0.63-0.29-0.25-0.61-0.47t-0.61-0.44-0.44-0.56q-1.22-0.44-2.37-1.05-1.14-0.61-2.02-1.58-0.98-0.1-1.62-0.61-0.63-0.52-1.17-1.3-1.17-0.39-2.15-1.02-0.97-0.64-1.92-1.32-0.96-0.69-2.01-1.25t-2.36-0.8q-0.05-0.34-0.3-0.52-0.24-0.17-0.56-0.29t-0.61-0.22-0.44-0.39q-0.15 0-0.29-0.02-0.15-0.03-0.29-0.03-0.15 0-0.32 0.03-0.17 0.02-0.32 0.02l0.05-0.14q0-0.2-0.12-0.25t-0.32-0.1-0.34-0.14q-0.15-0.1-0.15-0.44h-0.14q-0.54 0-0.98-0.2-0.44-0.19-0.98-0.29-0.1 0.54-0.1 1.02v0.88q0 2.2 0.49 4.62 0.49 2.41 1.52 4.32 1.02 0.39 1.75 1.02 0.74 0.64 1.42 1.47 0.05 1.32-0.95 2.22t-2.32 0.9q-0.73 0-1.34-0.36-0.61-0.37-1-1.05-0.3 0-0.54 0.12-0.25 0.12-0.59 0.12-0.14 0-0.29-0.05-0.49-0.83-0.95-1.46-0.47-0.64-0.61-1.71-0.54-0.24-0.66-0.88-0.12-0.63-0.56-1.02-0.2-2.2-0.52-4.4-0.31-2.2-0.31-4.39 0-0.49 0.04-1 0.05-0.52 0.1-1.05-0.1-0.25-0.27-0.47t-0.26-0.46q-0.98 0.24-2.03 0.46t-2.13 0.22q-0.68 0-1.66-0.22-0.97-0.22-1.51-0.61-0.39-0.24-0.56-0.9t-0.17-1.15q0-0.83 0.29-1.68 0.29-0.86 0.78-1.49 2.4-0.98 4.47-2.4 2.08-1.41 4.08-3.07 0.05-0.49 0.17-0.98t0.12-1.02q0-0.59-0.29-1.13 0.29-0.29 0.29-0.75 0-0.47 0.24-0.86v-0.29q0-0.2-0.02-0.39-0.02-0.2-0.17-0.39 0.34-1.91 0.54-3.79 0.19-1.88 0.19-3.88 0-0.15 0.17-0.8 0.17-0.66 0.22-0.91 0.2-1.12 0.27-2.22t0.22-2.22q0.05-0.39 0.2-1.03 0.14-0.63 0.14-0.88 0-0.34-0.12-0.46t-0.22-0.41q0.29-1.13 0.32-2.27 0.02-1.15 0.17-2.28 0.83-0.34 1.32-0.68t1.41-0.34h0.1q0.1 0.59 0.44 1.1t0.71 1.02q0.36 0.52 0.66 0.98 0.29 0.46 0.29 0.9 0 0.83-0.15 1.81-0.14 0.98-0.24 1.81-0.24 2.19-0.44 4.32-0.19 2.12-0.59 4.32 0.15 0.68 0.15 1.27 0 0.88-0.15 1.76-0.14 0.88-0.14 1.8 0 0.44 0.07 0.93t0.27 0.88q1.66-0.44 2.98-1.81 0.19-0.19 0.41-0.51t0.47-0.51q0.49-0.39 1.05-0.71t1.1-0.66q1.27-0.83 2.46-1.73 1.2-0.91 2.42-1.79 3.61-2.63 7.01-5.49 3.39-2.85 6.61-6.03 0.15-0.83 0.59-1.32t0.78-1.17q0.93-0.34 1.61-1.02 0.29 0.09 0.61 0.12 0.32 0.02 0.64 0.02 0.31 0 0.63 0.03 0.32 0.02 0.56 0.17 0.05 0.73 0.15 1.32 0.1 0.58 0.58 1.12 0 0.1 0.03 0.19 0.02 0.1 0.02 0.2 0 0.54-0.29 0.88t-0.34 0.83l-2.54 2.54q-1.27 1.27-2.34 2.73-0.4 0.05-0.69 0.25-0.29 0.19-0.56 0.41t-0.56 0.42q-0.29 0.19-0.64 0.29-0.87 1.17-2 2.12-1.12 0.96-2.29 1.83-1.17 0.88-2.32 1.79-1.15 0.9-2.13 1.97-1.02 0.49-1.97 1.15-0.96 0.66-1.54 1.64h-0.25q-0.24 0-0.39 0.12-0.14 0.12-0.39 0.12-2.63 2.3-5.47 4.32-2.83 2.03-5.42 4.42v1.22q0.83 0.49 1.81 0.91 0.98 0.41 1.93 0.9t1.81 1.05q0.85 0.56 1.49 1.34 0.09-0.05 0.24-0.05 0.44 0 0.68 0.27 0.25 0.27 0.83 0.17 0.2 0.78 0.88 1.13 0.69 0.34 1.37 0.58 0.59 0.59 1.07 1.1 0.49 0.51 1.42 0.66 0.1 0.19 0.15 0.44 0.04 0.24 0.19 0.44 0.93 0.29 1.78 0.83 0.86 0.54 1.69 1.1t1.68 1.07q0.86 0.51 1.83 0.81 0.15 0.48 0.57 0.68 0.41 0.2 0.65 0.59h0.88q0.15 0.24 0.39 0.46 0.25 0.22 0.35 0.61 0.39 0.1 0.87 0.27 0.49 0.17 0.88 0.41 0.15 0.15 0.22 0.35 0.08 0.19 0.27 0.34 0.29 0.24 0.91 0.36 0.61 0.13 1.04 0.37 0.88 0.49 1.71 1.1t1.76 1.15l1.91 1.02q0.48 0.25 0.9 0.54 0.41 0.29 0.85 0.54 0.88 0.39 1.88 0.51t1.83 0.51q0.25 0.15 0.35 0.37 0.09 0.22 0.34 0.36 0.39 0.25 1.22 0.35 0.83 0.09 1.37 0.34 0.68 0.29 1.34 0.56t1.34 0.66q1.47 0.1 2.91 0.34t2.85 0.49q1.42 0.24 2.86 0.44 1.44 0.19 2.91 0.14 0 0.1 0.12 0.13 0.12 0.02 0.22 0.02 0.34 0.54 0.58 1.07 0.25 0.54 0.25 1.13zm6.68-14.5q-0.14 0.68-0.61 1.09-0.46 0.42-1.09 0.66-0.64 0.25-1.3 0.32t-1.2 0.07q-0.24 0-0.46-0.02t-0.46-0.02q-0.25 0-0.25 0.24t-0.24 0.34q-0.25-0.1-0.49-0.15-0.24-0.04-0.49-0.04-0.34 0-0.66 0.04-0.31 0.05-0.61 0.05-0.39 0-0.56-0.09-0.17-0.1-0.29-0.22-0.12-0.13-0.25-0.27-0.12-0.15-0.36-0.25-0.34-0.14-0.56-0.05-0.22 0.1-0.66-0.29-0.59-0.49-1-1.19-0.42-0.71-0.81-1.49-0.39-0.79-0.83-1.57t-1.02-1.36h-0.4q-0.87 0-1.22 0.73-0.24-0.15-0.48-0.37-0.25-0.22-0.54-0.36-1.12 0.34-2.35 0.58-1.22 0.25-2.44 0.25h-0.68q-0.29 0-0.64-0.1-0.48 0.19-0.87 0.46t-0.88 0.27q-0.3 0-0.69-0.19-0.29 0-0.27 0.24 0.03 0.24-0.31 0.24h-0.44q-0.69 0-1.34 0.05-0.66 0.05-1.35 0.05-0.93 0-1.9-0.24-0.25 0.14-0.54 0.14-0.19 0.1-0.29 0.32t-0.2 0.39q-0.09 0.17-0.27 0.3-0.17 0.12-0.46 0.07-0.1 0.58-0.49 0.93-0.39 0.34-0.39 1.02-0.54 0.29-0.88 0.73t-0.68 0.93-0.71 0.93-0.9 0.68q-0.25 0.3-0.15 0.93-0.54 0.44-1.32 0.78t-1.46 0.34q-1.42 0-1.96-1.51 0-0.49 0.08-1.05 0.07-0.56 0.22-1.07 0.14-0.52 0.44-0.93 0.29-0.42 0.83-0.61 0-0.44-0.3-0.61-0.29-0.17-0.24-0.61 1.32-0.64 2.3-1.66 0.97-1.03 1.78-2.18 0.8-1.14 1.63-2.32 0.83-1.17 1.86-2.09v-1.03q1.46-1.56 1.9-3.52 0.54-0.09 0.71-0.48t0.17-0.93q0.25 0 0.32-0.22t0.41-0.12q0.44-1.18 0.98-2.15 0.54-0.98 1.07-1.98 0.54-1 0.96-2.07 0.41-1.08 0.61-2.4 0.68-0.05 0.75-0.66 0.08-0.61 0.18-1.1 0.73-0.68 1.09-1.61 0.37-0.92 0.66-1.93 0.3-1 0.66-2 0.37-1 1.05-1.78v-0.15q0-0.24-0.19-0.31-0.2-0.08-0.2-0.32 0.05-0.05 0.05-0.1 0.59-0.24 0.88-0.8 0.29-0.57 0.88-0.81 1.02 0.83 1.8 1 0.79 0.17 2.06 0.27 0.63 0.68 0.7 1.64 0.08 0.95 0.32 1.88 0.39 1.56 0.86 3.05 0.46 1.49 0.7 3.05 0.15 0.93 0.54 1.76t0.54 1.71q0.1 0.68 0 1.53-0.1 0.86 0.19 1.49l0.34 0.78q0.25 0.54 0.42 1.13 0.17 0.58 0.32 1.17 0.39 1.46 0.71 3.15 0.31 1.68 1 3.05 0.24 0.49 0.75 0.68 0.52 0.2 1.15 0.27 0.64 0.08 1.25 0.05 0.61-0.02 1.05-0.02h0.48q0.3 0 0.59 0.09 0.19 0.4 0.19 0.69 0 0.58-0.39 0.93-0.39 0.34-0.39 0.78 0 0.24 0.2 0.53-0.2-0.04-0.59-0.04-1.12 0-2.19 0.39 0.39 0.83 1.05 1.39 0.65 0.56 1.39 1.05 0.49-0.39 1.02-0.39 0.59 0 1.1 0.27 0.51 0.26 1.1 0.26 0.44 0 0.63-0.14 0.4 0.44 0.64 0.9t0.63 0.86zm-15.28-7.82q-0.1-0.83-0.32-1.19-0.22-0.37-0.36-0.91-0.2-0.68-0.27-1.46t-0.22-1.52q-0.34-1.66-0.76-3.32-0.41-1.66-1.05-3.22 0.2-0.29 0.2-0.54v-0.14q-0.44-0.49-0.64-1.2-0.19-0.71-0.36-1.41-0.17-0.71-0.44-1.32t-0.86-1q-0.14 0.29-0.14 0.68 0 0.34 0.07 0.64 0.07 0.29 0.07 0.63-0.49 0.24-0.71 0.76-0.22 0.51-0.7 0.8-0.39 1.56-1.13 2.96-0.73 1.39-1.53 2.76-0.81 1.36-1.54 2.75-0.73 1.4-1.17 2.91-0.64 0.44-0.86 1.12-0.22 0.69-0.22 1.37 0.44 0.24 1 0.27 0.56 0.02 1.1 0.02t1.03 0.1q0.48 0.1 0.88 0.49 0.63-0.2 1.39-0.27 0.75-0.07 1.24-0.42 0.98 0.35 2.1 0.35 0.59 0 1.15-0.1t1.1-0.25q0.44 0.1 0.68 0.32 0.25 0.22 0.73 0.17 0.25-0.19 0.3-0.41t0.24-0.42zm41.5-1.17q0 0.54-0.39 0.81t-0.39 0.7q0 0.2 0.2 0.49-0.69 0-0.93 0.44-0.25 0.44-0.49 0.98h-0.63q-0.25 0-0.4 0.1-0.14 0.09-0.26 0.27-0.13 0.17-0.32 0.51-0.93 0.19-1.78 0.61-0.86 0.41-1.66 0.88-0.81 0.46-1.64 0.93-0.83 0.46-1.71 0.75-0.44 0.73-1.27 1.17h-0.14q-0.25 0.05-0.42-0.07t-0.41-0.12q-0.15 0-0.2 0.05-1.46 0.97-3.27 0.97-0.49 0-0.93-0.07t-0.93-0.07q-0.14 0-0.19 0.09l-0.1 0.2q-0.05 0.1-0.12 0.2-0.07 0.09-0.37 0.09-0.53 0-1.07-0.14-0.54-0.15-1.13-0.05-1.12-0.64-1.75-1.22-0.64-0.59-1.17-1.76-0.25-0.54-0.66-1.03-0.42-0.48-0.61-1.07-0.05-0.2-0.15-0.71t-0.2-1.1q-0.09-0.58-0.17-1.12-0.07-0.54-0.07-0.73 0-0.59 0.07-1.15 0.08-0.56 0.17-1.15 0.3-1.85 0.42-3.73t0.8-3.64q-0.09-0.54-0.09-1.03v-1.07q0-0.93-0.25-1.56 0.39-0.64 0.39-1.42 0-0.88-0.73-1.02v-0.15q0-1.03-0.68-1.61 0-1.71 0.85-2.57 0.86-0.85 2.27-1.48 0.2-0.3 0.15-0.49 0.34 0.1 0.63 0.19 0.3 0.1 0.59 0.1 0.49 0 0.88-0.15 0.15 0.59 0.76 0.71t1 0.32v0.63q0 1.52 0.73 2.88-0.2 0.4-0.25 0.83-0.04 0.44-0.04 0.84 0 0.58 0.04 1.17 0.05 0.58 0.05 1.12 0 0.59-0.12 1.17-0.12 0.59-0.56 1.03-0.05 0.63-0.07 1.44-0.03 0.8-0.1 1.63t-0.27 1.61q-0.19 0.79-0.59 1.27-0.04 0.74-0.07 1.49-0.02 0.76-0.02 1.44 0 1.08 0.12 2.54 0.12 1.47 0.66 2.44 0.24 0.4 0.95 0.59 0.71 0.2 1.15 0.2 0.53 0 1.1-0.18 0.56-0.17 0.8-0.61 0.29 0.05 0.39 0.3 0.1 0.24 0.34 0.39 2.79-1.17 5.57-2.25 2.78-1.07 5.47-2.49 0.39 0.2 0.83 0.2 0.49 0 0.98-0.1 0.48-0.1 0.97-0.1h0.34q0.1 0.29 0.1 0.44zm30.57-15.72q-0.3 0.44-0.35 0.98-0.04 0.53-0.04 0.97 0 0.59 0.02 1.15t0.02 1.1v0.73q-0.09 0.34-0.29 0.68-0.19 0.35-0.29 0.69-0.69 1.8-0.69 3.61v0.1q-0.24 0.58-0.46 1.07t-0.41 0.95q-0.2 0.47-0.3 0.98-0.09 0.51-0.05 1.2-0.68 1.71-1.8 3.1-1.13 1.39-2.2 2.85-1.03 0.4-1.88 1.03t-1.64 1.42q-1.51 0.48-2.97 1.12-1.47 0.63-2.64 1.71-0.93 0.1-1.86 0.29-0.92 0.2-1.8 0.59h-0.59q-0.44 0-0.63-0.2-0.64 0.34-1.32 0.47-0.69 0.12-1.37 0.12-0.88 0-1.73-0.12-0.86-0.13-1.74-0.27-0.48-0.69-1.36-1.05-0.88-0.37-1.57-0.71-1.41-1.95-2.05-3.79-0.63-1.83-1.31-4.12 0.09-0.68 0.34-1.34 0.24-0.66 0.19-1.44 0.88-2.54 2.32-4.62 1.44-2.07 3.3-3.98 0-0.29 0.12-0.49 0.12-0.19 0.02-0.58 0.05 0.05 0.2 0.05 0.39 0 0.49-0.22t0.05-0.52q1.75-1.12 3.19-2.58 1.45-1.47 3.3-2.45 0.15-0.43 0.49-0.73 0.34-0.29 0.54-0.68 1.56-0.44 2.83-1.32t2.68-1.56q0.78-0.44 1.49-0.61t1.54-0.37q0.29-0.1 0.54-0.15 0.24-0.04 0.54-0.04 0.87 0 1.7 0.31 0.83 0.32 1.71 0.32 0.25 0 0.42-0.02 0.17-0.03 0.36-0.08 0.83 1.03 2.1 1.57 0.3 0.73 0.71 1.27 0.42 0.53 0.86 1.05 0.44 0.51 0.8 1.12 0.37 0.61 0.47 1.44zm-4.89 2.54q0-0.25-0.05-0.44-0.48-0.15-0.92-0.39-0.44-0.25-0.98-0.25-0.34 0-0.68 0.15-0.05-0.34-0.27-0.49-0.22-0.14-0.49-0.27-0.27-0.12-0.54-0.19-0.27-0.08-0.46-0.27-0.15-0.39-0.32-0.81-0.17-0.41-0.61-0.61-0.44 0.44-1.02 0.71-0.59 0.27-1.2 0.51-0.61 0.25-1.17 0.59t-0.95 0.83h-0.88q-0.3 0.54-0.83 0.81-0.54 0.26-0.93 0.75-0.78 0.39-1.44 0.95-0.66 0.57-1.3 1.18-0.63 0.61-1.24 1.24-0.61 0.64-1.29 1.17-0.64 1.37-1.4 2.37-0.75 1-1.41 2.03-0.66 1.02-1.13 2.22-0.46 1.2-0.46 2.95v0.49q0 0.25 0.05 0.49 0.63 0.68 1.05 1.47 0.41 0.78 1.39 1.12 0.98 0.39 2.08 0.34 1.09-0.05 2.12 0.24 2.34-0.44 4.52-1.44 2.17-1 4.12-2.41 0.3-0.25 0.69-0.52 0.39-0.26 0.63-0.56 0.25-0.24 0.42-0.53 0.17-0.3 0.36-0.54 0.39-0.64 0.88-1.27 0.49-0.64 1.03-1.17 0.24-1.08 0.63-2.08t0.78-1.98q0.39-0.97 0.66-2 0.27-1.02 0.27-2.15 0-0.24-0.02-0.53-0.03-0.3-0.08-0.54 0.39-0.54 0.39-1.17zm34.08 19.58q0 0.83-0.41 1.44-0.42 0.61-0.32 1.49-0.68 0.39-1.12 1.02-0.44 0.64-0.83 1.32-3.23 2.1-6.91 3.39-3.69 1.3-7.59 1.3-0.25 0-0.44-0.22-0.2-0.22-0.39-0.46-0.2-0.25-0.42-0.47t-0.51-0.22q-0.34 0-0.54 0.15 0-0.1 0.02-0.17 0.03-0.08 0.03-0.17 0-0.59-0.15-1.2-0.14-0.61-0.14-1.2 0-0.68 0.24-1.12h0.59q0.48 0 0.95-0.07 0.46-0.08 1-0.08t0.98 0.3q2.68-0.1 5.1-1 2.42-0.91 4.91-1.79 0.39-0.53 0.46-1.19t0.37-1.25q-1.27-1.07-2.57-1.68-1.29-0.61-3-0.42-1.03-0.63-2.17-0.73-1.15-0.1-2.32-0.29-0.3-0.05-0.61-0.12-0.32-0.08-0.66-0.08-0.25 0-0.47 0.12-0.22 0.13-0.12 0.37-0.24-0.39-0.66-0.46-0.41-0.08-0.71-0.37-1.56-0.1-2.73-0.56-1.17-0.47-2.59-1.05-0.39-0.15-0.75-0.22-0.37-0.07-0.71-0.27-0.88-0.44-1.42-1.17t-0.85-1.64q-0.32-0.9-0.47-1.88-0.14-0.97-0.29-1.8 0.44-0.78 0.81-1.61 0.36-0.83 0.61-1.76 0.29-0.15 0.58-0.25 0.3-0.09 0.64-0.24-0.05-0.1-0.05-0.25 0-0.24 0.17-0.48 0.17-0.25 0.07-0.49 1.08-0.98 2.08-2.03t1.73-2.32q0.73-0.24 1.17-0.73t0.88-1 0.98-0.93q0.54-0.41 1.37-0.51 0.19-0.34 0.53-0.56t0.69-0.42q0.34-0.19 0.63-0.44 0.29-0.24 0.44-0.68 0.78 0 1.44-0.29 0.66-0.3 1.29-0.64 0.64-0.34 1.3-0.63 0.66-0.3 1.44-0.3 0.19 0 0.39 0.03 0.19 0.02 0.44 0.07 0.34 0.34 0.46 0.81 0.13 0.46 0.17 1 0.05 0.54 0.08 1.07 0.02 0.54 0.17 0.98-0.44 0.83-0.95 1.66-0.52 0.83-1.35 1.27h-0.09q-0.35 0.05-0.64-0.15-0.29-0.19-0.68-0.19-0.25 0-0.39 0.14l-0.25 0.25q-0.1 0.09-0.27 0.19t-0.46 0q-0.68 0.25-0.54 0.83-0.92 0.1-1.56 0.56-0.63 0.47-1.17 1.03t-1.08 1.03q-0.53 0.46-1.27 0.51-0.83 1.46-2.02 2.59-1.2 1.12-1.98 2.53 0.15 0.4 0.2 0.83 0.04 0.44 0.14 0.93 0.44 0.59 1.05 1.03t1.2 0.88h0.15q0.97 0 1.8 0.36 0.83 0.37 1.76 0.37 0.49 0 0.83-0.2 1.27 0.3 2.51 0.49 1.25 0.2 2.52 0.3 0.63 0.09 1.29 0.09t1.25 0.15q0.54 0.15 1.07 0.37 0.54 0.22 1.08 0.46 1.12 0.49 2.12 1.07 1 0.59 1.78 1.4 0.78 0.8 1.22 1.85t0.44 2.42z" fill="#528265" data-fill-palette-color="primary"/>
</svg>
</g>
</svg>
</svg>
</svg>
</g>
<g transform="translate(431.49)">
<svg width="214.49" height="214.49" viewBox="0 0 214.48851839999998 214.48851839999998">
<svg/>
<svg width="214.49" height="214.49" viewBox="0 0 214.48851839999998 214.48851839999998">
<g fill="#398378">
<rect x="9.7314" y="9.7314" width="195.03" height="195.03" data-fill-palette-color="accent"/>
<rect x="-5.3291e-15" y="-5.3291e-15" width="195.03" height="195.03" opacity=".5" data-fill-palette-color="accent"/>
</g>
<g transform="translate(27.804 38.439)">
<svg width="158.88" height="137.61" viewBox="0 0 158.880384 137.6098331108543">
<svg class="icon-x-0" width="158.88" height="137.61" enable-background="new 0 0 532 640" data-fill-palette-color="background" version="1.1" viewBox="58.5 147.3000030517578 404.1000061035156 350" xml:space="preserve" xmlns="http://www.w3.org/2000/svg" xmlns:xlink="http://www.w3.org/1999/xlink"><path class="" d="m361.5 147.3h-202l-101 175 101 175h202.1l101-175-101.1-175zm87.2 173.8h-58.6l-30.9-53.5c15.9 26.4 46 44.1 89.5 53.5zm-128.5 107.6c-16.4-21.6-32.8-34.1-49.3-38h27.3l0.1-0.2 21.6 37.5c0.2 0.2 0.2 0.4 0.3 0.7zm-123.7-214.3c0.3 0.3 0.5 0.7 0.8 1l24.1 41.7h-0.2l-37 64h-45.3c64.9-6.6 83.9-42.4 57.6-106.7zm-4.1-7.1-27.1 46.9c10.4-25.1 10.5-56.5-0.2-94.6l27.5 47.7h-0.2zm124 17.5-18.9 32.3h-27.3c17.4-3.5 34.1-17.7 50-42.8-1.4 3.6-2.7 7.1-3.8 10.5zm1.9 96.3h-39.2l-8.1-14.1 19.5-33.3c-7.3 23.4 2.2 39.1 27.8 47.4zm10.3 2.8c-34.5 0.9-45 18.6-37.6 49.1l-20.1-34.8 8.5-14.7h47.5c0.6 0.1 1.1 0.3 1.7 0.4zm-34.5 59.7c-0.6-1.1-1.1-2.3-1.7-3.3l1.4 2.4c0.1 0.2 0.2 0.5 0.3 0.9zm-58.4-16.3 16.4-28h16.8l18 31.2c-16.3-25.1-33.3-26.6-51.2-3.2zm-44.9-43.4c0.5-0.1 1.1-0.3 1.6-0.4h49.2l8.4 14.6-22 37.6c9.7-30.4 2-50.5-37.2-51.8zm34.5-59.6c0.3 0.4 0.6 0.8 0.9 1.2l23.9 41.4-8.3 14.3h-41.1c29.3-9.8 37.2-28.9 24.6-56.9zm64.2 6.4-20.5 35h-16.9l-17.6-30.5c19.4 19.5 37.7 17.7 55-4.5zm23.9-36.1c-5.1 19-5.3 35.1-0.4 48l-13.8-23.9 14.2-24.1zm-89.3 22.5-18.1-31.3c16.1 17.9 31.7 28.4 46.8 31.4h-28.7zm-41.3 66.4-0.2 0.4 12.9 22.4c-9.3-11.2-24.4-18.9-45.9-22.8h33.2zm10 112.3-27.3 46.6c9.3-38.6 8.9-70.9-1.9-96.5l28.8 49.8h0.4zm3.7-7.1c10.7-28 13.5-51.2 6.9-68.8l16.9 29.2-21.9 37.5c-0.7 0.6-1.3 1.3-1.9 2.1zm25.5-38h26.1c-13.9 3.3-27.9 12.4-41.9 26.9l15.8-26.9zm77.7-2.6 37.1-64.2-0.2-0.4h30.4c-46 8.8-62.7 40.5-49.3 95.7l-18-31.1zm35.5-67-14.5-25.2c11 13.4 30.2 21.9 57.9 25.2h-43.4zm-8.4-109.5 27.3-46.6c-11.9 41.2-10.6 74.2 3.3 99.6l-30.6-53zm30.6-57.2c-0.1 0.2-0.1 0.4-0.2 0.5l-31.8 54.3-1.2-2h-51.9c29-3.7 57.3-21.8 85.1-52.8zm-107.9 52.9h-54.1l-28.5-49.3c28.1 29.7 55.6 45.7 82.6 49.3zm-96 67.3-26.9 46.5h-54.9c37.5-9.2 65-24.6 81.8-46.5zm-80.6 48.9h54.6l25.1 43.5c-16-21.3-42.3-36-79.7-43.5zm91.2 166.1 31.5-53.8h55.1c-28.8 3-57.7 20.7-86.6 53.8zm104.4-53.8h55.8l0.1-0.2 29 50.3c-28.2-30.2-56.5-47.1-84.9-50.1zm87.3 49.4-30-52 63.4-109.7h59.2c-88.9 18.4-120.9 71.6-92.6 161.7z" fill="#c9efc7" data-fill-palette-color="background"/></svg>
</svg>
</g>
</svg>
</svg>
</g>
</svg>
</svg>
<rect width="395.52" height="131.33" fill="none" visibility="hidden"/>
</g>
</svg>
</g>
</svg>
